<?xml version="1.0" encoding="utf-8"?>
<!-- Generator: Adobe Illustrator 18.1.0, SVG Export Plug-In . SVG Version: 6.00 Build 0)  -->
<svg version="1.1" id="Ebene_1" xmlns="http://www.w3.org/2000/svg" xmlns:xlink="http://www.w3.org/1999/xlink" x="0px" y="0px"
	 viewBox="0 0 499 93" enable-background="new 0 0 499 93" xml:space="preserve">
<g>
	<path fill="#00B0EB" d="M218.8,75.4c-3,0-5.4-2.4-5.4-5.4V24.4c0-3,2.4-5.4,5.4-5.4s5.4,2.4,5.4,5.4V70
		C224.2,73,221.8,75.4,218.8,75.4z"/>
</g>
<g>
	<path fill="#00B0EB" d="M245.6,75.4c-3,0-5.4-2.4-5.4-5.4V24.4c0-3,2.4-5.4,5.4-5.4s5.4,2.4,5.4,5.4V70
		C251.1,73,248.6,75.4,245.6,75.4z"/>
</g>
<g>
	<path fill="#001D4E" d="M51.3,75.4c-0.7,0-1.4-0.1-2.1-0.4c-2.8-1.2-4.1-4.4-2.9-7.1l19.1-45c1.2-2.8,4.4-4.1,7.1-2.9
		c2.8,1.2,4.1,4.4,2.9,7.1l-19.1,45C55.4,74.1,53.4,75.4,51.3,75.4z"/>
</g>
<g>
	<g>
		<path fill="#001D4E" d="M13,75.4c-0.7,0-1.4-0.1-2.1-0.4c-2.8-1.2-4.1-4.4-2.9-7.1l19.1-45c1.2-2.8,4.4-4.1,7.1-2.9
			c2.8,1.2,4.1,4.4,2.9,7.1l-19.1,45C17.2,74.1,15.2,75.4,13,75.4z"/>
	</g>
</g>
<g>
	<path fill="#00B0EB" d="M89.5,75.4c-2.1,0-4.1-1.2-5-3.3l-19.1-45c-1.2-2.8,0.1-5.9,2.9-7.1c2.8-1.2,5.9,0.1,7.1,2.9l19.1,45
		c1.2,2.8-0.1,5.9-2.9,7.1C90.9,75.2,90.2,75.4,89.5,75.4z"/>
</g>
<g>
	<path fill="#00B0EB" d="M51.3,75.4c-2.1,0-4.1-1.2-5-3.3l-19.1-45c-1.2-2.8,0.1-5.9,2.9-7.1c2.8-1.2,5.9,0.1,7.1,2.9l19.1,45
		c1.2,2.8-0.1,5.9-2.9,7.1C52.7,75.2,52,75.4,51.3,75.4z"/>
</g>
<g>
	<path fill="#00B0EB" d="M183.3,40.9c-5.1-1.5-9.5-2.8-9.5-6.6c0-2.9,2.3-6,7.4-6c2.8,0,4.8,0.8,6.6,1.4c1.4,0.5,2.6,1,4,1
		c2.9,0,4.5-2.6,4.5-5c0-2.9-3-4.6-5.4-5.5c-3.2-1.2-7-1.6-9.3-1.6c-12.4,0-18.9,8.6-18.9,17.2c0,10.1,8.5,12.5,16,14.6
		c5.7,1.6,10.6,3,10.6,7.5c0,4.7-3.5,7.7-9,7.7c-2.9,0-5.6-0.9-8-1.8c-1.9-0.7-3.8-1.3-5.3-1.3c-2.6,0-4.5,2-4.5,4.8
		c0,2.8,2.2,4.9,6.5,6.3c3.2,1.1,7.7,1.7,11.9,1.7c9.7,0,19.5-6,19.5-17.6C200.4,45.9,191,43.1,183.3,40.9"/>
</g>
<g>
	<path fill="#001D4E" d="M329.4,25.6c0.9,1,1.7,2.1,2.3,3.2c0.7,1.1,1,2.1,1,3c0,0.8-0.3,1.4-0.9,1.6c-0.6,0.3-1.2,0.4-1.6,0.4
		c-0.9,0-1.6-0.6-2.2-1.7c-1.8-3-3.9-5.3-6.5-6.8c-2.5-1.5-5.6-2.2-9.1-2.2c-3.1,0-5.9,0.5-8.5,1.5c-2.5,1-4.7,2.6-6.6,4.6
		c-1.8,2-3.3,4.6-4.2,7.7c-1,3.1-1.5,6.7-1.5,10.8c0,7.8,1.6,13.7,4.8,17.7c3.2,4,8.1,6,14.6,6c2.2,0,4.4-0.4,6.6-1.3
		c2.2-0.9,4.2-2.1,5.9-3.8c1.8-1.7,3.2-3.8,4.3-6.4c1.1-2.6,1.6-5.5,1.6-8.9H315c-1.2,0-1.7-0.7-1.7-2.2c0-1.4,0.6-2.1,1.7-2.1h16.6
		c0.7,0,1.3,0.2,1.8,0.6s0.7,1,0.7,1.9v24c0,0.7-0.2,1.2-0.7,1.4c-0.5,0.3-1.1,0.4-1.7,0.4s-1.2-0.1-1.6-0.4
		c-0.4-0.3-0.7-0.7-0.7-1.4v-7.9c-0.6,1.2-1.5,2.3-2.6,3.6c-1.1,1.2-2.4,2.4-4,3.4s-3.4,1.9-5.6,2.5c-2.1,0.7-4.6,1-7.3,1
		c-3.9,0-7.3-0.6-10.2-1.9c-3-1.3-5.4-3.1-7.4-5.6c-2-2.4-3.5-5.4-4.5-8.8c-1-3.5-1.5-7.4-1.5-11.7c0-3.7,0.5-7.3,1.5-10.8
		c1-3.5,2.5-6.6,4.6-9.3c2.1-2.7,4.7-4.9,8-6.5s7.3-2.5,11.9-2.5c3.5,0,6.7,0.6,9.7,1.8C324.9,21.6,327.4,23.3,329.4,25.6z"/>
	<path fill="#001D4E" d="M349.2,72.7c0,0.9-0.2,1.5-0.6,1.8c-0.4,0.3-1,0.5-1.7,0.5c-0.7,0-1.2-0.2-1.6-0.5
		c-0.4-0.3-0.6-0.9-0.6-1.8v-36c0-0.8,0.2-1.4,0.5-1.7c0.4-0.3,0.9-0.4,1.5-0.4c0.7,0,1.2,0.1,1.6,0.4c0.4,0.3,0.6,0.9,0.6,1.7v7.4
		c0.8-1.8,1.7-3.3,2.9-4.6s2.3-2.3,3.5-3c1.2-0.8,2.4-1.3,3.6-1.6c1.2-0.3,2.3-0.5,3.4-0.5c1.1,0,1.9,0.2,2.4,0.6
		c0.5,0.4,0.7,1.1,0.7,2c0,0.9-0.2,1.6-0.6,2c-0.4,0.4-1,0.6-1.9,0.6c-4.2,0-7.6,1.4-10,4.2c-2.4,2.8-3.6,6.9-3.6,12.4V72.7z"/>
	<path fill="#001D4E" d="M367.7,54.8c0-3.3,0.5-6.2,1.4-8.8c0.9-2.6,2.2-4.8,3.8-6.6s3.6-3.2,6-4.1s4.9-1.4,7.7-1.4s5.4,0.5,7.8,1.4
		c2.4,0.9,4.4,2.3,6,4.1s2.9,4,3.8,6.6c0.9,2.6,1.4,5.5,1.4,8.8c0,3.3-0.5,6.3-1.4,8.9c-0.9,2.6-2.2,4.8-3.8,6.6
		c-1.6,1.8-3.7,3.2-6,4.1c-2.4,0.9-4.9,1.4-7.8,1.4s-5.4-0.5-7.7-1.4c-2.3-0.9-4.3-2.3-6-4.1c-1.6-1.8-2.9-4-3.8-6.6
		C368.1,61,367.7,58.1,367.7,54.8z M372.6,54.7c0,5.4,1.2,9.6,3.6,12.5c2.4,2.9,5.9,4.4,10.4,4.4c4.6,0,8-1.5,10.4-4.4
		c2.4-2.9,3.6-7.1,3.6-12.5c0-5.3-1.2-9.5-3.6-12.5c-2.4-3-5.9-4.4-10.4-4.4c-4.5,0-8,1.5-10.4,4.4
		C373.8,45.2,372.6,49.4,372.6,54.7z"/>
	<path fill="#001D4E" d="M443.4,36.8c0-0.9,0.2-1.5,0.6-1.8s1-0.5,1.7-0.5c0.7,0,1.3,0.2,1.7,0.5c0.4,0.3,0.6,0.9,0.6,1.8v36.1
		c0,0.8-0.2,1.4-0.6,1.7c-0.4,0.3-0.9,0.4-1.5,0.4c-0.7,0-1.2-0.1-1.6-0.4c-0.4-0.3-0.6-0.9-0.6-1.7v-7c-0.3,0.7-0.8,1.6-1.5,2.7
		c-0.7,1.1-1.6,2.2-2.9,3.3c-1.2,1.1-2.7,2-4.5,2.7c-1.8,0.8-3.8,1.1-6.2,1.1c-4.1,0-7.4-1.1-9.9-3.3s-3.7-5.7-3.7-10.4V36.4
		c0-1.3,0.7-1.9,2.1-1.9c1.6,0,2.4,0.6,2.4,1.9v23.9c0,3.6,0.7,6.3,2,8.3c1.4,2,3.9,2.9,7.6,2.9c2.4,0,4.5-0.5,6.3-1.6
		c1.8-1.1,3.3-2.4,4.4-4.1c1.2-1.7,2.1-3.6,2.6-5.6s0.9-4.1,0.9-6.1V36.8z"/>
	<path fill="#001D4E" d="M459.9,36.9c0-0.9,0.2-1.5,0.6-1.8c0.4-0.3,0.9-0.5,1.6-0.5c0.7,0,1.3,0.2,1.7,0.5c0.4,0.3,0.6,1,0.6,1.8
		v4.6c1.5-2.1,3.5-4,5.8-5.5s5.3-2.2,8.9-2.2c2.7,0,5.1,0.5,7.1,1.5c2.1,1,3.9,2.4,5.3,4.3c1.4,1.8,2.5,4,3.3,6.6
		c0.8,2.6,1.1,5.4,1.1,8.5c0,3.1-0.4,5.9-1.1,8.5c-0.8,2.6-1.9,4.8-3.4,6.7c-1.5,1.9-3.3,3.3-5.5,4.4c-2.1,1-4.6,1.6-7.4,1.6
		c-3.2,0-6.1-0.7-8.5-2s-4.3-3.4-5.7-6.2v21.4c0,0.8-0.2,1.4-0.7,1.7c-0.4,0.3-1,0.4-1.7,0.4c-0.7,0-1.2-0.1-1.6-0.4
		c-0.4-0.3-0.6-0.9-0.6-1.7V36.9z M491,55c0-2.5-0.3-4.8-0.8-6.9c-0.5-2.1-1.4-3.8-2.5-5.3c-1.1-1.5-2.5-2.6-4.1-3.4
		c-1.6-0.8-3.5-1.2-5.7-1.2c-4.4,0-7.8,1.5-10.2,4.3c-2.4,2.9-3.6,7-3.6,12.2c0,2.5,0.3,4.7,0.9,6.8c0.6,2.1,1.4,3.9,2.6,5.4
		c1.2,1.5,2.6,2.7,4.2,3.6c1.7,0.9,3.6,1.3,5.8,1.3c2.1,0,4.1-0.4,5.7-1.2c1.7-0.8,3.1-1.9,4.2-3.4s2-3.2,2.6-5.3
		C490.7,59.7,491,57.4,491,55z"/>
</g>
<g>
	<path fill="#001D4E" d="M110,75.4c-0.7,0-1.4-0.1-2.1-0.4c-2.8-1.2-4.1-4.4-2.9-7.1l19.1-45c1.2-2.8,4.4-4.1,7.1-2.9
		c2.8,1.2,4.1,4.4,2.9,7.1l-19.1,45C114.1,74.1,112.1,75.4,110,75.4z"/>
</g>
<g>
	<path fill="#00B0EB" d="M148.2,75.4c-2.1,0-4.1-1.2-5-3.3l-19.1-45c-1.2-2.8,0.1-5.9,2.9-7.1c2.8-1.2,5.9,0.1,7.1,2.9l19.1,45
		c1.2,2.8-0.1,5.9-2.9,7.1C149.6,75.2,148.9,75.4,148.2,75.4z"/>
</g>
</svg>
